<svg xmlns="http://www.w3.org/2000/svg" viewBox="0 0 640 740" role="img" aria-labelledby="title desc">
  <title id="title">deepagentsr hex logo</title>
  <desc id="desc">A hexagonal logo for deepagentsr showing an agent network, tool nodes, and an R badge.</desc>
  <defs>
    <linearGradient id="hex-fill" x1="80" y1="85" x2="560" y2="650" gradientUnits="userSpaceOnUse">
      <stop offset="0" stop-color="#14532d"/>
      <stop offset="0.52" stop-color="#0f766e"/>
      <stop offset="1" stop-color="#2563eb"/>
    </linearGradient>
    <linearGradient id="node-fill" x1="210" y1="190" x2="455" y2="455" gradientUnits="userSpaceOnUse">
      <stop offset="0" stop-color="#ecfeff"/>
      <stop offset="1" stop-color="#dbeafe"/>
    </linearGradient>
    <filter id="soft-shadow" x="-20%" y="-20%" width="140%" height="140%">
      <feDropShadow dx="0" dy="18" stdDeviation="16" flood-color="#082f49" flood-opacity="0.28"/>
    </filter>
  </defs>

  <path
    d="M320 28 596 185v318L320 712 44 503V185Z"
    fill="url(#hex-fill)"
    filter="url(#soft-shadow)"/>
  <path
    d="M320 56 570 199v290L320 684 70 489V199Z"
    fill="none"
    stroke="#f8fafc"
    stroke-width="18"
    stroke-linejoin="round"/>
  <path
    d="M320 94 535 217v249L320 646 105 466V217Z"
    fill="none"
    stroke="#99f6e4"
    stroke-width="4"
    stroke-opacity="0.55"
    stroke-linejoin="round"/>

  <g opacity="0.2" stroke="#ffffff" stroke-width="3" fill="none">
    <path d="M130 250h380"/>
    <path d="M110 338h420"/>
    <path d="M126 426h388"/>
    <path d="M224 125v505"/>
    <path d="M320 88v592"/>
    <path d="M416 125v505"/>
  </g>

  <g stroke="#e0f2fe" stroke-width="18" stroke-linecap="round" stroke-linejoin="round" fill="none">
    <path d="M320 284 203 218"/>
    <path d="M320 284 443 218"/>
    <path d="M320 284v138"/>
    <path d="M320 422 205 492"/>
    <path d="M320 422 441 492"/>
  </g>

  <g fill="url(#node-fill)" stroke="#0f172a" stroke-width="8">
    <circle cx="320" cy="284" r="68"/>
    <circle cx="203" cy="218" r="42"/>
    <circle cx="443" cy="218" r="42"/>
    <circle cx="320" cy="422" r="52"/>
    <circle cx="205" cy="492" r="38"/>
    <circle cx="441" cy="492" r="38"/>
  </g>

  <g fill="#0f172a">
    <path d="M289 263h62a19 19 0 0 1 19 19v5a19 19 0 0 1-19 19h-62a19 19 0 0 1-19-19v-5a19 19 0 0 1 19-19Z"/>
    <circle cx="296" cy="285" r="7" fill="#22d3ee"/>
    <circle cx="344" cy="285" r="7" fill="#22d3ee"/>
    <path d="M294 329h52c7 0 12 5 12 12v7c0 7-5 12-12 12h-52c-7 0-12-5-12-12v-7c0-7 5-12 12-12Z"/>
  </g>

  <g fill="#0f172a">
    <path d="M183 202h40v14h-12v24h-16v-24h-12Z"/>
    <path d="M421 197h44v15h-14v34h-16v-34h-14Z"/>
    <path d="M292 402h56v17h-19v43h-18v-43h-19Z"/>
    <path d="M187 472h36v16h-10v25h-16v-25h-10Z"/>
    <path d="M424 474h34v14h-10v25h-14v-25h-10Z"/>
  </g>

  <g transform="translate(166 548)">
    <rect x="0" y="0" width="308" height="76" rx="38" fill="#f8fafc" stroke="#0f172a" stroke-width="8"/>
    <text x="154" y="50"
      text-anchor="middle"
      font-family="Inter, Avenir, Helvetica, Arial, sans-serif"
      font-size="39"
      font-weight="800"
      fill="#0f172a">deepagentsr</text>
  </g>

  <g transform="translate(428 104)">
    <circle cx="58" cy="58" r="54" fill="#f8fafc" stroke="#0f172a" stroke-width="8"/>
    <text x="58" y="75"
      text-anchor="middle"
      font-family="Inter, Avenir, Helvetica, Arial, sans-serif"
      font-size="58"
      font-weight="900"
      fill="#2563eb">R</text>
  </g>
</svg>
